<svg xmlns="http://www.w3.org/2000/svg" enable-background="new 0 0 24 24" height="24px" viewBox="0 0 24 24" width="24px" fill="#000000">
    <symbol id="Settings">
        <rect fill="none" height="24" width="24"/>
        <path d="M19.5,12c0-0.23-0.01-0.45-0.03-0.68l1.86-1.41c0.4-0.3,0.51-0.86,0.26-1.3l-1.87-3.23c-0.25-0.44-0.79-0.62-1.25-0.42 l-2.15,0.91c-0.37-0.26-0.76-0.49-1.17-0.68l-0.29-2.31C14.8,2.38,14.37,2,13.87,2h-3.73C9.63,2,9.2,2.38,9.14,2.88L8.85,5.19 c-0.41,0.19-0.8,0.42-1.17,0.68L5.53,4.96c-0.46-0.2-1-0.02-1.25,0.42L2.41,8.62c-0.25,0.44-0.14,0.99,0.26,1.3l1.86,1.41 C4.51,11.55,4.5,11.77,4.5,12s0.01,0.45,0.03,0.68l-1.86,1.41c-0.4,0.3-0.51,0.86-0.26,1.3l1.87,3.23c0.25,0.44,0.79,0.62,1.25,0.42 l2.15-0.91c0.37,0.26,0.76,0.49,1.17,0.68l0.29,2.31C9.2,21.62,9.63,22,10.13,22h3.73c0.5,0,0.93-0.38,0.99-0.88l0.29-2.31 c0.41-0.19,0.8-0.42,1.17-0.68l2.15,0.91c0.46,0.2,1,0.02,1.25-0.42l1.87-3.23c0.25-0.44,0.14-0.99-0.26-1.3l-1.86-1.41 C19.49,12.45,19.5,12.23,19.5,12z M12.04,15.5c-1.93,0-3.5-1.57-3.5-3.5s1.57-3.5,3.5-3.5s3.5,1.57,3.5,3.5S13.97,15.5,12.04,15.5z"/>
    </symbol>
    <symbol id="Questions">
        <path d="M0 0h24v24H0V0z" fill="none"/>
        <path d="M20 6h-1v8c0 .55-.45 1-1 1H6v1c0 1.1.9 2 2 2h10l4 4V8c0-1.1-.9-2-2-2zm-3 5V4c0-1.1-.9-2-2-2H4c-1.1 0-2 .9-2 2v13l4-4h9c1.1 0 2-.9 2-2z"/>
    </symbol>
    <symbol id="Explore">
        <path d="M12 10.9c-.61 0-1.1.49-1.1 1.1s.49 1.1 1.1 1.1c.61 0 1.1-.49 1.1-1.1s-.49-1.1-1.1-1.1zM12 2C6.48 2 2 6.48 2 12s4.48 10 10 10 10-4.48 10-10S17.52 2 12 2zm2.19 12.19L6 18l3.81-8.19L18 6l-3.81 8.19z"/>
    </symbol>
    <symbol id="Post">
        <g><rect fill="none" height="24" width="24"/><rect fill="none" height="24" width="24"/></g><g><g/><g><path d="M18,12c-0.55,0-1,0.45-1,1v5.22c0,0.55-0.45,1-1,1H6c-0.55,0-1-0.45-1-1V8c0-0.55,0.45-1,1-1h5c0.55,0,1-0.45,1-1 c0-0.55-0.45-1-1-1H5C3.9,5,3,5.9,3,7v12c0,1.1,0.9,2,2,2h12c1.1,0,2-0.9,2-2v-6C19,12.45,18.55,12,18,12z"/><path d="M21.02,5H19V2.98C19,2.44,18.56,2,18.02,2h-0.03C17.44,2,17,2.44,17,2.98V5h-2.01C14.45,5,14.01,5.44,14,5.98 c0,0.01,0,0.02,0,0.03C14,6.56,14.44,7,14.99,7H17v2.01c0,0.54,0.44,0.99,0.99,0.98c0.01,0,0.02,0,0.03,0 c0.54,0,0.98-0.44,0.98-0.98V7h2.02C21.56,7,22,6.56,22,6.02V5.98C22,5.44,21.56,5,21.02,5z"/><path d="M14,9H8c-0.55,0-1,0.45-1,1c0,0.55,0.45,1,1,1h6c0.55,0,1-0.45,1-1C15,9.45,14.55,9,14,9z"/><path d="M14,12H8c-0.55,0-1,0.45-1,1c0,0.55,0.45,1,1,1h6c0.55,0,1-0.45,1-1C15,12.45,14.55,12,14,12z"/><path d="M14,15H8c-0.55,0-1,0.45-1,1c0,0.55,0.45,1,1,1h6c0.55,0,1-0.45,1-1C15,15.45,14.55,15,14,15z"/></g></g>
    </symbol>
    <symbol id="Leaderboard">
        <rect fill="none" height="24" width="24"/><g><path d="M6.5,21H3c-0.55,0-1-0.45-1-1V10c0-0.55,0.45-1,1-1h3.5c0.55,0,1,0.45,1,1v10C7.5,20.55,7.05,21,6.5,21z M13.75,3h-3.5 c-0.55,0-1,0.45-1,1v16c0,0.55,0.45,1,1,1h3.5c0.55,0,1-0.45,1-1V4C14.75,3.45,14.3,3,13.75,3z M21,11h-3.5c-0.55,0-1,0.45-1,1v8 c0,0.55,0.45,1,1,1H21c0.55,0,1-0.45,1-1v-8C22,11.45,21.55,11,21,11z"/></g>
    </symbol>
    <symbol id="Notification">
        <path d="M12 22c1.1 0 2-.9 2-2h-4c0 1.1.89 2 2 2zm6-6v-5c0-3.07-1.64-5.64-4.5-6.32V4c0-.83-.67-1.5-1.5-1.5s-1.5.67-1.5 1.5v.68C7.63 5.36 6 7.92 6 11v5l-1.29 1.29c-.63.63-.19 1.71.7 1.71h13.17c.89 0 1.34-1.08.71-1.71L18 16z"/>
    </symbol>
    <symbol id="Search">
        <path d="M0 0h24v24H0V0z" fill="none"/><path d="M15.5 14h-.79l-.28-.27c1.2-1.4 1.82-3.31 1.48-5.34-.47-2.78-2.79-5-5.59-5.34-4.23-.52-7.79 3.04-7.27 7.27.34 2.8 2.56 5.12 5.34 5.59 2.03.34 3.94-.28 5.34-1.48l.27.28v.79l4.25 4.25c.41.41 1.08.41 1.49 0 .41-.41.41-1.08 0-1.49L15.5 14zm-6 0C7.01 14 5 11.99 5 9.5S7.01 5 9.5 5 14 7.01 14 9.5 11.99 14 9.5 14z"/>
    </symbol>
    <symbol id="Like">
        <path d="M0 0h24v24H0V0zm0 0h24v24H0V0z" fill="none"/><path d="M13.12 2.06L7.58 7.6c-.37.37-.58.88-.58 1.41V19c0 1.1.9 2 2 2h9c.8 0 1.52-.48 1.84-1.21l3.26-7.61C23.94 10.2 22.49 8 20.34 8h-5.65l.95-4.58c.1-.5-.05-1.01-.41-1.37-.59-.58-1.53-.58-2.11.01zM3 21c1.1 0 2-.9 2-2v-8c0-1.1-.9-2-2-2s-2 .9-2 2v8c0 1.1.9 2 2 2z"/>
    </symbol>
    <symbol id="Dislike">
        <path d="M0 0h24v24H0V0z" fill="none" opacity=".87"/><path d="M10.88 21.94l5.53-5.54c.37-.37.58-.88.58-1.41V5c0-1.1-.9-2-2-2H6c-.8 0-1.52.48-1.83 1.21L.91 11.82C.06 13.8 1.51 16 3.66 16h5.65l-.95 4.58c-.1.5.05 1.01.41 1.37.59.58 1.53.58 2.11-.01zM21 3c-1.1 0-2 .9-2 2v8c0 1.1.9 2 2 2s2-.9 2-2V5c0-1.1-.9-2-2-2z"/>
    </symbol>
</svg>
    